<svg xmlns="http://www.w3.org/2000/svg" viewBox="0 0 800 450" width="800" height="450">
  <defs>
    <linearGradient id="bg2" x1="0%" y1="0%" x2="100%" y2="100%">
      <stop offset="0%" style="stop-color:#0d1b2a"/>
      <stop offset="50%" style="stop-color:#1b263b"/>
      <stop offset="100%" style="stop-color:#0a3d62"/>
    </linearGradient>
    <linearGradient id="accent2" x1="0%" y1="0%" x2="100%" y2="0%">
      <stop offset="0%" style="stop-color:#06b6d4"/>
      <stop offset="100%" style="stop-color:#0891b2"/>
    </linearGradient>
    <linearGradient id="done" x1="0%" y1="0%" x2="100%" y2="0%">
      <stop offset="0%" style="stop-color:#10b981"/>
      <stop offset="100%" style="stop-color:#059669"/>
    </linearGradient>
  </defs>

  <!-- Background -->
  <rect width="800" height="450" fill="url(#bg2)"/>

  <!-- Sidebar -->
  <rect x="0" y="0" width="180" height="450" fill="#0d1b2a" opacity="0.9"/>
  <rect x="0" y="0" width="3" height="450" fill="url(#accent2)"/>
  <circle cx="90" cy="55" r="28" fill="#1b263b" stroke="#06b6d4" stroke-width="2"/>
  <circle cx="90" cy="48" r="12" fill="#0d1b2a"/>
  <ellipse cx="90" cy="75" rx="17" ry="10" fill="#0d1b2a"/>
  <rect x="20" y="100" width="140" height="12" rx="6" fill="#064e73" opacity="0.8"/>
  <rect x="20" y="125" width="140" height="36" rx="8" fill="#06b6d4" opacity="0.2"/>
  <rect x="30" y="136" width="80" height="12" rx="6" fill="#06b6d4" opacity="0.8"/>
  <rect x="20" y="170" width="140" height="36" rx="8" fill="transparent"/>
  <rect x="30" y="181" width="70" height="12" rx="6" fill="#7dd3fc" opacity="0.5"/>
  <rect x="20" y="215" width="140" height="36" rx="8" fill="transparent"/>
  <rect x="30" y="226" width="90" height="12" rx="6" fill="#7dd3fc" opacity="0.5"/>
  <rect x="20" y="260" width="140" height="36" rx="8" fill="transparent"/>
  <rect x="30" y="271" width="60" height="12" rx="6" fill="#7dd3fc" opacity="0.5"/>

  <!-- Main area - título -->
  <rect x="200" y="18" width="140" height="18" rx="9" fill="white" opacity="0.85"/>
  <rect x="356" y="20" width="80" height="14" rx="7" fill="#06b6d4" opacity="0.5"/>

  <!-- Kanban columns -->
  <!-- Col 1: To Do -->
  <rect x="200" y="55" width="175" height="360" rx="12" fill="#0d1b2a" opacity="0.7"/>
  <rect x="215" y="68" width="80" height="14" rx="7" fill="#7dd3fc" opacity="0.7"/>
  <rect x="215" y="100" width="145" height="70" rx="8" fill="#1b263b"/>
  <rect x="225" y="112" width="100" height="10" rx="5" fill="white" opacity="0.7"/>
  <rect x="225" y="128" width="80" height="8" rx="4" fill="#7dd3fc" opacity="0.4"/>
  <rect x="225" y="142" width="40" height="16" rx="8" fill="#06b6d4" opacity="0.3"/>
  <rect x="215" y="182" width="145" height="70" rx="8" fill="#1b263b"/>
  <rect x="225" y="194" width="110" height="10" rx="5" fill="white" opacity="0.7"/>
  <rect x="225" y="210" width="75" height="8" rx="4" fill="#7dd3fc" opacity="0.4"/>
  <rect x="225" y="224" width="40" height="16" rx="8" fill="#8b5cf6" opacity="0.4"/>
  <rect x="215" y="264" width="145" height="70" rx="8" fill="#1b263b"/>
  <rect x="225" y="276" width="90" height="10" rx="5" fill="white" opacity="0.7"/>
  <rect x="225" y="292" width="110" height="8" rx="4" fill="#7dd3fc" opacity="0.4"/>
  <rect x="225" y="306" width="40" height="16" rx="8" fill="#f59e0b" opacity="0.4"/>

  <!-- Col 2: In Progress -->
  <rect x="390" y="55" width="175" height="360" rx="12" fill="#0d1b2a" opacity="0.7"/>
  <rect x="405" y="68" width="100" height="14" rx="7" fill="#fbbf24" opacity="0.7"/>
  <rect x="405" y="100" width="145" height="90" rx="8" fill="#1b263b"/>
  <rect x="415" y="112" width="115" height="10" rx="5" fill="white" opacity="0.7"/>
  <rect x="415" y="128" width="85" height="8" rx="4" fill="#fbbf24" opacity="0.4"/>
  <!-- Progress bar -->
  <rect x="415" y="143" width="120" height="8" rx="4" fill="#0d1b2a"/>
  <rect x="415" y="143" width="80" height="8" rx="4" fill="url(#accent2)" opacity="0.8"/>
  <rect x="415" y="157" width="40" height="16" rx="8" fill="#fbbf24" opacity="0.3"/>
  <rect x="405" y="203" width="145" height="90" rx="8" fill="#1b263b"/>
  <rect x="415" y="215" width="100" height="10" rx="5" fill="white" opacity="0.7"/>
  <rect x="415" y="231" width="90" height="8" rx="4" fill="#fbbf24" opacity="0.4"/>
  <rect x="415" y="246" width="120" height="8" rx="4" fill="#0d1b2a"/>
  <rect x="415" y="246" width="45" height="8" rx="4" fill="url(#accent2)" opacity="0.6"/>
  <rect x="415" y="260" width="50" height="16" rx="8" fill="#f59e0b" opacity="0.3"/>

  <!-- Col 3: Done -->
  <rect x="580" y="55" width="175" height="360" rx="12" fill="#0d1b2a" opacity="0.7"/>
  <rect x="595" y="68" width="50" height="14" rx="7" fill="#10b981" opacity="0.7"/>
  <rect x="595" y="100" width="145" height="70" rx="8" fill="#1b263b"/>
  <rect x="605" y="112" width="105" height="10" rx="5" fill="white" opacity="0.5"/>
  <rect x="605" y="128" width="75" height="8" rx="4" fill="#6ee7b7" opacity="0.4"/>
  <!-- Check icon -->
  <circle cx="727" cy="112" r="10" fill="url(#done)" opacity="0.8"/>
  <polyline points="722,112 726,116 733,108" fill="none" stroke="white" stroke-width="2" stroke-linecap="round"/>
  <rect x="595" y="182" width="145" height="70" rx="8" fill="#1b263b"/>
  <rect x="605" y="194" width="90" height="10" rx="5" fill="white" opacity="0.5"/>
  <rect x="605" y="210" width="110" height="8" rx="4" fill="#6ee7b7" opacity="0.4"/>
  <circle cx="727" cy="194" r="10" fill="url(#done)" opacity="0.8"/>
  <polyline points="722,194 726,198 733,190" fill="none" stroke="white" stroke-width="2" stroke-linecap="round"/>

  <!-- Footer label -->
  <rect x="180" y="408" width="620" height="42" fill="#0d1b2a" opacity="0.85"/>
  <text x="490" y="434" font-family="'Segoe UI', system-ui, sans-serif" font-size="15" fill="#7dd3fc" text-anchor="middle" opacity="0.8">Aplicación de Tareas · React · TypeScript · Drag &amp; Drop</text>
</svg>
